<svg xmlns="http://www.w3.org/2000/svg" xmlns:xlink="http://www.w3.org/1999/xlink" enable-background="new 0 0 3000 3000" viewBox="0 0 3000 3000" id="singer-performing-with-guitar-on-stage">
  <switch>
    <g>
      <g>
        <g>
          <g>
            <ellipse cx="1562.243" cy="2572.84" opacity=".1" rx="458.008" ry="277.155"></ellipse>
            <path fill="#f0c7ad" d="M1953.968,414.617c-1.296,13.661-11.829,33.147-10.04,37.924
						c47.049-78.813,89.685,3.344,84.803,25.755c-8.547,39.239-24.137,72.522-39.55,80.055c-9.802,4.79-18.285,13.564-23.843,20.128
						c-22.131,26.141-91.112-5.434-80.585-22.241c9.537-15.481,5.348-31.108,2.762-46.191
						c-4.824-28.143,12.159-62.336,17.557-67.481c11.822-11.268,23.993-42.269,26.223-53.773c0.587-3.028,3.384-5.126,6.264-4.462
						C1946.446,386.377,1955.608,397.34,1953.968,414.617z"></path>
            <path fill="#f0c7ad" d="M1289.123,567.391c-40.692,55.913-6.494,90.028,22.661,119.065
						c0,0,341.432,237.101,436.984,224.113c59.887-8.14,218.849-338.973,218.849-338.973l-78.753-19.852l-166.319,206.776
						c0,0-184.594-121.16-260.115-168.67C1406.166,554.455,1342.149,494.532,1289.123,567.391z"></path>
            <path fill="#242424" d="M1476.987,565.303c-56.263-35.396-134.838-70.771-187.864,2.088
						c-40.693,55.913-13.954,86.392,15.201,115.429c0,0,296.043,285.773,441.85,267.547c62.172-23.619,7.712-135.977-27.339-191.372
						C1669.929,723.228,1512.572,587.689,1476.987,565.303z"></path>
            <path fill="#a89f84" d="M1570.968,2462.948c7.107,67.699,67.003,44.164,148.064,65.606
						c84.353,22.313,119.414,37.014,187.169,30.788c46.672-4.289,103.988-46.316,67.337-69.368
						c-57.927-36.435-107.541-23.723-210.499-54.028c-67.283-19.804-95.972-60.701-132.625-49.64
						C1599.955,2395.499,1566.706,2422.349,1570.968,2462.948z"></path>
            <path fill="#c7bd9c" d="M1573.704,2446.387c8.188,48.889,64.266,42.89,145.328,64.333
						c84.353,22.313,120.642,45.414,188.397,39.188c46.672-4.288,103.988-46.316,67.337-69.368
						c-57.927-36.434-99.266-49.072-202.224-79.376c-67.283-19.804-104.247-35.352-140.9-24.291
						C1601.183,2386.064,1566.966,2406.158,1573.704,2446.387z"></path>
            <path fill="#42382b" d="M1472.787,2454.002c1.638,49.747,345.685,32.594,364.517-72.904
						c0,0-47.764-379.621-41.656-452.556c8.108-96.817-126.655-568.468-139.871-567.661l-291.093,31.918
						c91.743,228.341,185.015,459.284,220.876,592.491L1472.787,2454.002z"></path>
            <path fill="#a89f84" d="M1337.823,2522.756c5.517,12.887,31.876,40.652,52.807,90.809
						c12.583,30.153,29.415,57.74,30.645,86.854c2.193,51.912-13.327,58.3-58.571,61.262
						c-77.833,5.096-166.27-84.828-177.555-190.238c-9.729-90.872,33.548-89.606,63.37-102.469
						C1298.872,2447.255,1295.575,2424.075,1337.823,2522.756z"></path>
            <path fill="#c7bd9c" d="M1341.27,2501.452c5.517,12.887,23.92,46.64,44.851,96.796
						c14.853,35.593,41.34,90.478,35.166,121.082c-14.911,15.62-74.508,31.225-112.659,14.035
						c-35.177-15.849-67.102-50.624-87.805-84.639c-26.741-43.933-54.666-166.04-4.98-189.381S1299.023,2402.772,1341.27,2501.452z"></path>
            <path fill="#5c4e3b" d="M1494.124,2098.344c39.844-134.453,14.091-745.756,1.868-745.654l-276.453,36.045
						c41.599,262.49,74.25,512.81,50.739,677.391l-271.365,460.78c16.481,69.054,343.305,106.243,419.195,54.678L1494.124,2098.344z
						"></path>
            <path fill="#d6b19a" d="M1105.658,633.585l219.632-72.33c-1.122-5.124-40.824-73.806-55.858-78.792
						c-40.474-66.873-83.399-152.924-83.399-152.924l-120.392,121.283c0,0,8.881,38.902,15.339,87.952
						C1077.704,560.697,1085.629,641.797,1105.658,633.585z"></path>
            <path fill="#d6b19a" d="M1599.314,1353.321c23.205,63.903-242.361,246.19-338.97,170.336l-176.381-887.174
						l229.693-106.313L1599.314,1353.321z"></path>
            <path fill="#333" d="M1080.93,585.849c-6.246,28.498-57.321,93.239-75.903,108.841
						c-55.69,46.762-84.373,82.743-64.189,154.456c21.676,77.01,213.873,230.93,253.062,430.17
						c36.795,187.067,17.96,230.455,27.256,284.266c16.626,29.606,104.776,50.009,175.174,35.427
						c153.494-31.794,289.31-182.226,281.671-241.208c0,0-162.137-668.889-260.446-772.07
						c-40.023-42.006-77.502-86.139-116.722-66.906c-8.772,84.694-56.945,139.842-101.435,139.926
						c-7.452,0.014-38.335-1.489-63.79-27.339L1080.93,585.849z"></path>
            <path fill="#f0c7ad" d="M1042.196,404.281c2.905,29.588,6.475,58.338,20.224,80.234
						c28.555,45.475,54.189,75.253,97.455,110.39c22.062,17.917,72.112,38.275,93.386,9.551
						c36.687-49.536,73.926-154.57,81.483-258.307c9.932-136.34-133.685-183.601-216.536-169.65
						C1032.499,190.931,1029.788,277.888,1042.196,404.281z"></path>
            <path fill="#73523d" d="M1329.476,232.525c-16.254-33.321-74.378-59.941-131.981-69.409
						c11.876-4.711,24.229-8.096,37.507-8.399c-27.01-5.912-63.539-4.818-79.407,3.551c-9.161-9.918-30.441-10.258-52.027-4.487
						c12.204,1.719,21.621,3.732,30.61,7.19c-31.07,3.322-60.034,13.536-81.402,33.391c-64.487,59.922-30.93,281.589,8.603,291.084
						c5.653-15.526,15.157-41.458,16.399-55.484c1.206-13.617-6.989-49.257-4.108-62.595c2.748-12.726,11.655-36.106,23.597-32.4
						c10.499,3.258,8.405,28.772,11.081,46.516c2.201,3.121,17.282,3.281,19.692,0.488c2.35-23.214-4.74-71.972,21.313-78.63
						c15.016-3.837,94.8,37.301,49.644,119.201c69.273-54.6,45.296-133.159,56.881-134.135
						c15.034-1.266,40.102,29.134,32.918,72.184c43.016-41.36,25.562-69.299,32.906-61.785c9.329,9.544,9.329,23.861,9.329,23.861
						S1353.452,281.675,1329.476,232.525z"></path>
            <path fill="#242424" d="M1843.484,517.617c34.984-22.877,103.751-14.854,160.88,54.367
						c0,0-212.673,404.901-223.73,407.785c-38.488,10.039-202.125-76.927-189.379-138.757
						c9.362-45.412,82.016-9.113,145.807-145.807C1769.685,625.299,1817.882,552.328,1843.484,517.617z"></path>
            <g>
              <g>
                <path fill="#de604d" d="m1797.272 1029.708-38.749-3.534c30.945 2.823 66.397-31.918 85.968-30.133l38.749 3.534C1863.669 997.79 1828.217 1032.531 1797.272 1029.708zM1665.456 989.54l-38.749-3.534c7.724.704 15.59.158 23.586-2.835 17.403-6.54 30.968-17.854 48.704-16.236l38.749 3.534c-17.736-1.618-31.301 9.696-48.704 16.236C1681.046 989.698 1673.18 990.244 1665.456 989.54z"></path>
                <g>
                  <path fill="#f06754" d="M1579.651,976.05c-12.069-1.1-23.667,1.514-34.741,13.763
									c-4.1,4.538-7.728,9.236-10.956,14.1c-41.597,62.669-16.271,151.922-64.335,255.689
									c-8.085,17.443-20.203,37.558-34.543,59.161c-17.54,26.421-38.404,55.064-59.257,83.716
									c-20.902,28.68-76.615,113.239-80.002,134.974c-9.729,62.422,33.667,108.601,33.667,108.601
									c-10.216-15.374-17.183-33.845-19.368-56.137c-2.151-21.908,17.289-58.213,45.079-100.075
									c17.57-26.465,38.472-55.146,59.374-83.828c20.851-28.652,41.717-57.295,59.256-83.716
									c14.342-21.603,26.459-41.718,34.545-59.16c48.063-103.769,22.737-193.021,64.335-255.69
									c3.228-4.864,6.855-9.562,10.956-14.1c11.073-12.249,22.671-14.863,34.74-13.762L1579.651,976.05z"></path>
                  <g>
                    <path fill="#8c190a" d="M1572.704,1007.448c3.228-4.864,6.856-9.561,10.956-14.099
										c31.321-34.646,66.831,7.786,105.382-6.643c19.384-7.285,34.008-20.493,54.937-15.155
										c33.793,8.524,16.962,42.608,40.595,54.549c42.544,21.528,100.642-58.189,111.744-11.863
										c5.75,23.992-8.875,55.844-32.714,91.755c-17.988,27.097-41.222,56.505-64.909,86.595
										c-23.668,30.078-47.795,60.845-67.577,90.644c-14.149,21.313-26.075,42.129-34.027,61.853
										c-39.98,99.281-56.955,270.699-100.309,336.007c-2.722,4.101-5.547,7.782-8.49,11.002
										c-25.843,28.343-263.11,51.467-278.175-102.176c-2.15-21.907,17.291-58.213,45.08-100.075
										c17.568-26.465,38.471-55.147,59.373-83.828c20.852-28.651,41.717-57.295,59.257-83.716
										c14.341-21.603,26.458-41.718,34.543-59.16C1556.433,1159.369,1531.108,1070.117,1572.704,1007.448z"></path>
                    <path fill="#d9d9d9" d="M1681.327,1321.266c18.866-43.731,69.052-106.321,107.51-155.449
										c28.375-36.248,81.457-87.808,84.826-138.156c-38.084,18.027-89.066,49.176-120.137,0.859
										c-11.367-17.676-3.096-28.899-24.282-32.46c-17.773-2.987-44.37,19.479-65.636,18.403
										c-21.608-1.093-43.073-16.732-62.626-3.937c-19.378,12.68-25.62,51.883-29.361,73.02
										c-10.33,58.355-4.433,120.035-33.819,171.912c-25.647,45.277-54.72,66.447-33.842,93.635
										c16.009,20.847,61.817-10.425,97.241,14.789c19.778,14.077,0.16,94.913,28.882,90.257
										C1656.428,1449.868,1667.243,1353.913,1681.327,1321.266z"></path>
                    <g>
                      <defs>
                        <path id="a" d="M1572.704,1007.448c3.228-4.864,6.856-9.561,10.956-14.099
												c31.321-34.646,66.831,7.786,105.382-6.643c19.384-7.285,34.008-20.493,54.937-15.155
												c33.793,8.524,16.962,42.608,40.595,54.549c42.544,21.528,100.642-58.189,111.744-11.863
												c5.75,23.992-8.875,55.844-32.714,91.755c-17.988,27.097-41.222,56.505-64.909,86.595
												c-23.668,30.078-47.795,60.845-67.577,90.644c-14.149,21.313-26.075,42.129-34.027,61.853
												c-39.98,99.281-56.955,270.699-100.309,336.007c-2.722,4.101-5.547,7.782-8.49,11.002
												c-25.843,28.343-263.11,51.467-278.175-102.176c-2.15-21.907,17.291-58.213,45.08-100.075
												c17.568-26.465,38.471-55.147,59.373-83.828c20.852-28.651,41.717-57.295,59.257-83.716
												c14.341-21.603,26.458-41.718,34.543-59.16C1556.433,1159.369,1531.108,1070.117,1572.704,1007.448z"></path>
                      </defs>
                      <clipPath id="b">
                        <use xlink:href="#a" overflow="visible"></use>
                      </clipPath>
                      <g clip-path="url(#b)">
                        <polygon fill="#383838" points="1832.106 1366.528 1326.065 1849.563 1289.522 1807.56 1795.563 1324.525"></polygon>
                        <polygon fill="#383838" points="1849.884 1382.959 1343.843 1865.994 1334.658 1855.44 1840.699 1372.405"></polygon>
                        <polygon fill="#383838" points="1767.556 1310.271 1261.516 1793.306 1254.549 1785.302 1760.589 1302.267"></polygon>
                      </g>
                    </g>
                  </g>
                </g>
              </g>
              <g>
                <g>
                  <polygon fill="#826328" points="1744.85 1074.574 1735.191 1073.693 1701.89 1034.527 1711.55 1035.408"></polygon>
                </g>
                <path fill="#ffd991" d="M2053.045,206.274c-3.762,4.711-75.225,94.224-100.377,132.112
								c-4.357,6.563-7.207,11.428-7.908,13.827c-5.789,19.678,9.153,55.206-6.348,93.6
								c-24.71,61.087-119.32,296.743-236.522,588.714l9.66,0.881c117.202-291.972,211.812-527.627,236.522-588.714
								c15.501-38.394,0.56-73.922,6.348-93.6c0.702-2.4,3.551-7.264,7.908-13.827c25.151-37.888,96.615-127.4,100.377-132.112
								L2053.045,206.274z"></path>
                <g>
                  <path fill="#d4a142" d="M1962.328,339.267c25.152-37.888,96.615-127.4,100.377-132.112
									c1.431,0.384,28.625,7.673,27.964,21.019c-0.533,11.389-24.784,48.478-32.896,75.09
									c-7.147,23.394-5.354,81.238-14.555,97.976c-0.483,0.888-1,1.742-1.55,2.571c-4.217,6.352-10.374,11.201-17.584,17.709
									c-7.258,6.555-15.626,14.781-24.293,27.838c-6.22,9.369-12.594,21.228-18.818,36.734
									c-24.61,61.308-119.087,296.762-236.121,588.481l-33.301-39.166c117.201-291.971,211.812-527.627,236.522-588.714
									c15.501-38.394,0.56-73.922,6.348-93.6C1955.121,350.695,1957.971,345.83,1962.328,339.267z"></path>
                </g>
              </g>
              <g>
                <g>
                  <g>
                    <polygon fill="#263638" points="1715.989 1146.661 1706.329 1145.78 1673.053 1106.669 1682.713 1107.55"></polygon>
                  </g>
                  <g>
                    <defs>
                      <path id="c" d="M1682.713,1107.55l-9.66-0.881
											c4.089-10.246,2.889-7.079,6.937-17.169l9.66,0.881C1685.603,1100.471,1686.803,1097.305,1682.713,1107.55z" enable-background="new"></path>
                    </defs>
                    <clipPath id="d">
                      <use xlink:href="#c" overflow="visible"></use>
                    </clipPath>
                    <g clip-path="url(#d)">
                      <path fill="#9fbabd" d="M1682.713,1107.55l-9.66-0.881c4.089-10.245,2.889-7.079,6.937-17.168l9.66,0.881
											C1685.603,1100.471,1686.803,1097.305,1682.713,1107.55L1682.713,1107.55z"></path>
                    </g>
                  </g>
                  <g>
                    <path fill="#5f858a" d="M1689.65,1090.382l33.343,39.01c-4.081,10.14-2.881,6.974-7.003,17.27l-33.276-39.111
										C1686.803,1097.305,1685.603,1100.471,1689.65,1090.382z"></path>
                  </g>
                </g>
              </g>
              <g>
                <g>
                  <g>
                    <polygon fill="#263638" points="1652.905 1303.514 1643.245 1302.633 1609.969 1263.522 1619.629 1264.403"></polygon>
                  </g>
                  <g>
                    <defs>
                      <path id="e" d="M1619.629,1264.403l-9.66-0.881
											c4.089-10.246,2.89-7.079,6.937-17.169l9.66,0.881C1622.518,1257.324,1623.718,1254.157,1619.629,1264.403z" enable-background="new"></path>
                    </defs>
                    <clipPath id="f">
                      <use xlink:href="#e" overflow="visible"></use>
                    </clipPath>
                    <g clip-path="url(#f)">
                      <path fill="#9fbabd" d="M1619.629,1264.403l-9.66-0.881c4.089-10.246,2.89-7.079,6.937-17.168l9.66,0.881
											C1622.518,1257.324,1623.718,1254.157,1619.629,1264.403L1619.629,1264.403z"></path>
                    </g>
                  </g>
                  <g>
                    <path fill="#5f858a" d="M1626.565,1247.234l33.343,39.01c-4.081,10.14-2.88,6.974-7.003,17.27l-33.276-39.111
										C1623.718,1254.157,1622.518,1257.324,1626.565,1247.234z"></path>
                  </g>
                </g>
              </g>
              <path fill="#c7c7c7" d="M1526.587,1414.947l15.4-37.375c1.346-3.267,5.472-3.97,7.738-1.32l58.572,68.522
							c1.211,1.416,1.524,3.44,0.804,5.185l-15.506,37.57c-1.349,3.269-5.482,3.967-7.744,1.309l-58.466-68.717
							C1526.182,1418.705,1525.87,1416.687,1526.587,1414.947z"></path>
              <g>
                <g>
                  <g>
                    <polygon fill="#826328" points="1590.786 1459.717 1581.126 1458.836 1547.85 1419.725 1557.51 1420.606"></polygon>
                  </g>
                  <g>
                    <defs>
                      <path id="g" d="M1557.51,1420.606l-9.66-0.881
											c4.089-10.246,2.89-7.079,6.937-17.169l9.66,0.881C1560.399,1413.527,1561.599,1410.36,1557.51,1420.606z" enable-background="new"></path>
                    </defs>
                    <clipPath id="h">
                      <use xlink:href="#g" overflow="visible"></use>
                    </clipPath>
                    <g clip-path="url(#h)">
                      <path fill="#ffd991" d="M1557.51,1420.606l-9.66-0.881c4.089-10.245,2.89-7.079,6.937-17.169l9.66,0.881
											C1560.399,1413.527,1561.599,1410.36,1557.51,1420.606L1557.51,1420.606z"></path>
                    </g>
                  </g>
                  <g>
                    <path fill="#d4a142" d="M1564.447,1403.437l33.343,39.01c-4.081,10.14-2.881,6.974-7.003,17.27l-33.276-39.111
										C1561.599,1410.36,1560.399,1413.527,1564.447,1403.437z"></path>
                  </g>
                </g>
              </g>
              <g>
                <path fill="#737373" d="M1976.524,360.345c-0.873-0.08-1.791,0.443-2.545,1.578c-1.54,2.319-1.854,6.229-0.705,8.769
								c0.555,1.228,1.364,1.892,2.226,1.971l19.374,1.767c-0.861-0.078-1.671-0.743-2.226-1.971
								c-1.149-2.541-0.835-6.45,0.705-8.77c0.754-1.135,1.672-1.658,2.545-1.578L1976.524,360.345z"></path>
                <g>
                  <path fill="#dbdbdb" d="M1993.354,363.691c1.506-2.269,3.669-2.091,4.818,0.45c1.124,2.485,0.81,6.394-0.697,8.663
									c-1.54,2.32-3.702,2.141-4.826-0.344C1991.5,369.92,1991.814,366.011,1993.354,363.691z"></path>
                </g>
              </g>
              <g>
                <path fill="#737373" d="M1999.448,334.759c-0.873-0.079-1.791,0.443-2.545,1.578c-1.54,2.319-1.854,6.229-0.705,8.77
								c0.555,1.228,1.364,1.892,2.226,1.971l19.374,1.767c-0.862-0.078-1.671-0.743-2.226-1.971
								c-1.149-2.541-0.835-6.45,0.705-8.769c0.754-1.136,1.672-1.658,2.545-1.578L1999.448,334.759z"></path>
                <g>
                  <path fill="#dbdbdb" d="M2016.277,338.105c1.506-2.269,3.669-2.091,4.818,0.449c1.124,2.485,0.81,6.395-0.697,8.664
									c-1.54,2.32-3.702,2.141-4.826-0.344C2014.423,344.334,2014.738,340.424,2016.277,338.105z"></path>
                </g>
              </g>
              <g>
                <path fill="#737373" d="M2018.143,310.324c-0.873-0.08-1.791,0.443-2.545,1.578c-1.54,2.319-1.854,6.229-0.705,8.769
								c0.555,1.228,1.364,1.892,2.226,1.971l19.375,1.767c-0.862-0.078-1.671-0.743-2.226-1.971
								c-1.149-2.541-0.835-6.45,0.705-8.769c0.754-1.136,1.672-1.658,2.545-1.578L2018.143,310.324z"></path>
                <g>
                  <path fill="#dbdbdb" d="M2034.972,313.67c1.506-2.269,3.669-2.091,4.818,0.45c1.124,2.485,0.81,6.395-0.696,8.664
									c-1.54,2.319-3.703,2.141-4.827-0.344C2033.118,319.899,2033.432,315.99,2034.972,313.67z"></path>
                </g>
              </g>
              <g>
                <path fill="#737373" d="M2037.908,286.294c-0.873-0.08-1.791,0.443-2.545,1.578c-1.54,2.319-1.854,6.229-0.705,8.769
								c0.555,1.228,1.364,1.892,2.226,1.971l19.374,1.767c-0.862-0.078-1.671-0.743-2.226-1.971
								c-1.149-2.541-0.835-6.45,0.705-8.77c0.754-1.135,1.672-1.658,2.545-1.578L2037.908,286.294z"></path>
                <g>
                  <path fill="#dbdbdb" d="M2054.738,289.639c1.506-2.269,3.669-2.091,4.818,0.45c1.124,2.485,0.81,6.395-0.696,8.663
									c-1.54,2.319-3.703,2.141-4.827-0.344C2052.884,295.868,2053.198,291.959,2054.738,289.639z"></path>
                </g>
              </g>
              <g>
                <path fill="#737373" d="M2056.074,263.984c-0.873-0.08-1.791,0.443-2.545,1.578c-1.54,2.319-1.854,6.229-0.705,8.77
								c0.555,1.228,1.364,1.892,2.226,1.971l19.375,1.767c-0.862-0.078-1.671-0.743-2.226-1.971
								c-1.149-2.541-0.835-6.45,0.705-8.77c0.754-1.135,1.672-1.658,2.545-1.578L2056.074,263.984z"></path>
                <g>
                  <path fill="#dbdbdb" d="M2072.903,267.33c1.506-2.269,3.669-2.091,4.818,0.45c1.124,2.485,0.81,6.395-0.697,8.663
									c-1.54,2.319-3.702,2.141-4.826-0.344C2071.049,273.558,2071.363,269.649,2072.903,267.33z"></path>
                </g>
              </g>
              <path fill="#4a4a4a" d="M1558.876 1423.246c-.152 0-.306-.028-.458-.09-.623-.253-.925-.964-.672-1.59l428.921-1060.981c.252-.624.961-.922 1.59-.672.623.252.927.963.672 1.589l-428.92 1060.981C1559.816 1422.957 1559.358 1423.246 1558.876 1423.246zM1565.463 1431.085c-.152 0-.306-.028-.458-.09-.623-.252-.925-.963-.672-1.589l442.527-1094.64c.25-.623.961-.925 1.589-.672.624.252.927.963.672 1.589l-442.527 1094.64C1566.403 1430.796 1565.944 1431.085 1565.463 1431.085zM1572.05 1438.926c-.152 0-.306-.028-.458-.09-.624-.252-.925-.963-.672-1.589l455.564-1126.889c.25-.621.961-.93 1.59-.672.623.252.925.963.672 1.589l-455.565 1126.889C1572.99 1438.638 1572.531 1438.926 1572.05 1438.926zM1578.691 1446.631c-.152 0-.307-.028-.459-.09-.623-.252-.925-.963-.672-1.589l468.473-1158.815c.25-.623.958-.93 1.589-.672.623.252.927.964.672 1.59l-468.473 1158.814C1579.631 1446.343 1579.173 1446.631 1578.691 1446.631zM1585.345 1454.308c-.152 0-.306-.028-.458-.09-.623-.252-.925-.964-.672-1.59l480.594-1188.802c.25-.621.958-.927 1.589-.672.624.252.925.964.672 1.59l-480.594 1188.802C1586.285 1454.019 1585.826 1454.308 1585.345 1454.308z"></path>
            </g>
            <path fill="#d9d9d9" d="M1651.224,1249.934c-20.974,16.129-37.767,37.323-64.251,30.331
						c-2.459-0.649-5.607-1.421-9.046-2.195l8.449-9.555c0,0,24.82-10.857,29.522-20.641c2.052-4.276,0.72-11.31-3.287-13.61
						c-5.906-3.393-33.425,3.951-43.726,8.308c-11.424,4.832-35.39,13.131-44.598,21.656c-6.267,5.804-10.856,17.592-20.079,28.035
						c-5.696,6.449-10.128,10.002-15.509,12.918l-0.109-0.294c-92.198,15.171-193.156,16.112-288.189,9.235
						c10.793,61.022,15.032,104.545,16.685,137.968c123.011-25.259,298.686-74.157,298.686-74.157l-0.148-0.398
						c1.613-0.112,3.223-0.184,4.844-0.561c9.287-2.162,25.414-0.744,37.869,0.97c31.151,4.288,57.908-8.915,81.125-25.188
						c22.881-16.035,29.63-33.874,30.531-54.84C1670.448,1287.27,1669.639,1235.776,1651.224,1249.934z"></path>
            <path fill="#f0c7ad" d="M1654.38,1249.178c-22.869,12.999-42.251,31.61-67.586,20.92
						c-2.353-0.993-5.37-2.204-8.678-3.46l9.608-8.267c0,0,25.997-7.229,31.922-16.256c2.588-3.944,2.178-11.102-1.494-13.951
						c-5.412-4.2-33.628-0.835-44.398,2.018c-11.944,3.164-36.763,7.979-46.99,15.118c-6.961,4.859-13.034,15.888-23.524,24.922
						c-6.479,5.581-11.33,8.471-17.039,10.595l-0.07-0.307c-107.657,2.226-224.642-15.762-329.372-41.475
						c0,0-40.864-236.793-62.955-324.483c-15.826-62.827-63.865-153.13-102.705-155.328c-56.606-3.2-75.832,56.101-65.808,114.546
						c22.307,130.058,96.051,456.17,153.153,503.63c30.871,25.659,425.158-20.656,425.158-20.656l-0.095-0.415
						c1.612,0.118,3.217,0.275,4.872,0.132c9.482-0.823,25.275,2.875,37.392,6.343c30.307,8.675,58.527-0.603,83.638-13.427
						c24.745-12.636,33.743-29.351,37.35-49.995C1668.591,1288.901,1674.457,1237.768,1654.38,1249.178z"></path>
            <path fill="#242424" d="M989.801,749.882c-56.606-3.201-70.338,65.791-79.122,124.436
						c-10.17,67.898,36.934,475.443,133.8,513.47c32.951,56.736,107.001-88.98,109.355-154.92
						c-14.581-64.525-39.678-288.264-51.467-335.067C1086.54,834.975,1028.641,752.079,989.801,749.882z"></path>
            <path fill="#f0c7ad" d="M2009.007,523.621c-7.515,6.539-29.947,4.31-38.055-4.143
						c-14.026-14.622-19.546-71.906-4.325-85.15c7.515-6.539,43.429-1.139,49.672,6.733
						C2028.943,457.007,2024.229,510.377,2009.007,523.621z"></path>
          </g>
          <path fill="#242424" d="M1504.326,1246.895c36.083,21.096,59.59,86.216,23.138,168.232c0,0-457.245-9.618-464.76-18.226
					c-26.159-29.962,30.11-147.846,91.13-164.033C1171.961,1228.06,1504.326,1246.895,1504.326,1246.895z"></path>
        </g>
      </g>
    </g>
  </switch>
</svg>
